<svg xmlns="http://www.w3.org/2000/svg" width="620" height="605" viewBox="0 0 620 605">
<rect x="0" y="0" width="100%" height="100%" fill="#ffffff"/>
<polyline fill="none" stroke="#d9342b" stroke-opacity="0.22" stroke-width="1" points="373.25,301.97 372.95,296.80 372.03,291.68 370.53,286.67 368.44,281.79 365.78,277.12 362.59,272.68 358.89,268.53 354.72,264.69 350.12,261.22 345.14,258.14 339.81,255.48 334.20,253.27 328.36,251.53 322.34,250.27 316.20,249.51 310.00,249.26 303.80,249.51 297.66,250.27 291.64,251.53 285.79,253.27 280.18,255.48 274.86,258.14 269.87,261.22 265.27,264.69 261.10,268.53 257.41,272.68 254.21,277.12 251.56,281.79 249.47,286.67 247.96,291.68 247.05,296.80 246.75,301.97 247.05,307.13 247.96,312.25 249.47,317.27 251.56,322.14 254.21,326.81 257.40,331.25 261.10,335.41 265.27,339.24 269.87,342.71 274.86,345.79 280.18,348.45 285.79,350.66 291.64,352.41 297.66,353.66 303.80,354.42 310.00,354.68 316.20,354.42 322.34,353.66 328.36,352.41 334.20,350.66 339.81,348.45 345.14,345.79 350.12,342.71 354.72,339.24 358.89,335.41 362.59,331.25 365.78,326.81 368.43,322.14 370.53,317.27 372.03,312.25 372.95,307.13 373.25,301.97"/>
<polyline fill="none" stroke="#d9342b" stroke-opacity="0.22" stroke-width="1" points="371.93,301.97 371.63,296.93 370.74,291.94 369.27,287.05 367.22,282.30 364.62,277.74 361.49,273.41 357.87,269.36 353.79,265.63 349.29,262.24 344.41,259.23 339.19,256.64 333.70,254.49 327.98,252.79 322.08,251.56 316.07,250.82 310.00,250.57 303.93,250.82 297.91,251.56 292.02,252.79 286.30,254.49 280.80,256.64 275.59,259.23 270.71,262.24 266.20,265.63 262.12,269.36 258.50,273.41 255.38,277.74 252.78,282.30 250.73,287.05 249.25,291.94 248.36,296.93 248.06,301.97 248.36,307.00 249.25,311.99 250.73,316.88 252.78,321.63 255.38,326.19 258.50,330.52 262.12,334.57 266.20,338.31 270.71,341.69 275.59,344.70 280.80,347.29 286.30,349.45 292.02,351.15 297.91,352.37 303.93,353.11 310.00,353.36 316.07,353.11 322.08,352.37 327.98,351.15 333.70,349.45 339.19,347.29 344.41,344.70 349.29,341.69 353.79,338.31 357.87,334.57 361.49,330.52 364.62,326.19 367.22,321.63 369.27,316.89 370.74,311.99 371.63,307.00 371.93,301.97"/>
<polyline fill="none" stroke="#d9342b" stroke-opacity="0.22" stroke-width="1" points="270.72,346.44 247.00,346.44"/>
<polyline fill="none" stroke="#d9342b" stroke-opacity="0.22" stroke-width="1" points="270.72,257.49 247.00,257.49"/>
<polyline fill="none" stroke="#d9342b" stroke-opacity="0.22" stroke-width="1" points="381.23,365.22 238.91,365.22"/>
<polyline fill="none" stroke="#d9342b" stroke-opacity="0.22" stroke-width="1" points="238.91,365.22 238.91,238.72"/>
<polyline fill="none" stroke="#d9342b" stroke-opacity="0.22" stroke-width="1" points="238.91,238.72 381.23,238.72"/>
<polyline fill="none" stroke="#d9342b" stroke-opacity="0.22" stroke-width="1" points="381.23,238.72 381.23,365.22"/>
<polyline fill="none" stroke="#d9342b" stroke-opacity="0.22" stroke-width="1" points="379.25,363.24 240.88,363.24"/>
<polyline fill="none" stroke="#d9342b" stroke-opacity="0.22" stroke-width="1" points="240.88,363.24 240.88,240.69"/>
<polyline fill="none" stroke="#d9342b" stroke-opacity="0.22" stroke-width="1" points="240.88,240.69 379.25,240.69"/>
<polyline fill="none" stroke="#d9342b" stroke-opacity="0.22" stroke-width="1" points="379.25,240.69 379.25,363.24"/>
<polyline fill="none" stroke="#d9342b" stroke-opacity="0.22" stroke-width="1" points="374.64,245.30 245.50,245.30"/>
<polyline fill="none" stroke="#d9342b" stroke-opacity="0.22" stroke-width="1" points="245.50,245.30 245.50,358.63"/>
<polyline fill="none" stroke="#d9342b" stroke-opacity="0.22" stroke-width="1" points="245.50,358.63 374.64,358.63"/>
<polyline fill="none" stroke="#d9342b" stroke-opacity="0.22" stroke-width="1" points="374.64,358.63 374.64,245.30"/>
<polyline fill="none" stroke="#d9342b" stroke-opacity="0.22" stroke-width="1" points="372.99,246.95 247.14,246.95"/>
<polyline fill="none" stroke="#d9342b" stroke-opacity="0.22" stroke-width="1" points="247.14,246.95 247.14,356.98"/>
<polyline fill="none" stroke="#d9342b" stroke-opacity="0.22" stroke-width="1" points="247.14,356.98 372.99,356.98"/>
<polyline fill="none" stroke="#d9342b" stroke-opacity="0.22" stroke-width="1" points="372.99,356.98 372.99,246.95"/>
<polyline fill="none" stroke="#d9342b" stroke-opacity="0.22" stroke-width="1" points="349.27,346.44 372.99,346.44"/>
<polyline fill="none" stroke="#d9342b" stroke-opacity="0.22" stroke-width="1" points="349.27,257.49 372.99,257.49"/>
<polygon fill="#d9342b" fill-opacity="0.08" stroke="#d9342b" stroke-opacity="0.25" stroke-width="1" points="238.84,238.84 381.16,238.84 381.16,365.35 238.84,365.35 238.84,238.84"/>
<polygon fill="#d9342b" fill-opacity="0.08" stroke="#d9342b" stroke-opacity="0.25" stroke-width="1" points="241.48,240.16 379.84,240.16 379.84,362.71 241.48,362.71 241.48,240.16"/>
<polygon fill="#d9342b" fill-opacity="0.08" stroke="#d9342b" stroke-opacity="0.25" stroke-width="1" points="374.57,358.76 245.43,358.76 245.43,245.43 374.57,245.43 374.57,358.76"/>
<polygon fill="#d9342b" fill-opacity="0.08" stroke="#d9342b" stroke-opacity="0.25" stroke-width="1" points="373.25,357.44 246.75,357.44 246.75,246.75 373.25,246.75 373.25,357.44"/>
<polygon fill="#d9342b" fill-opacity="0.08" stroke="#d9342b" stroke-opacity="0.25" stroke-width="1" points="373.25,307.36 371.93,312.64 370.62,317.91 367.98,321.86 365.35,327.13 362.71,331.08 358.76,335.04 354.80,338.99 349.53,342.94 345.58,345.58 340.31,348.21 333.72,350.85 328.45,352.17 321.86,353.49 316.59,354.80 310.00,354.80 303.41,354.80 298.14,353.49 291.55,352.17 286.28,350.85 279.69,348.21 274.42,345.58 270.47,342.94 265.20,338.99 261.24,335.04 257.29,331.08 254.65,327.13 252.02,321.86 249.38,317.91 248.07,312.64 246.75,307.36 246.75,302.09 246.75,296.82 248.07,291.55 249.38,286.28 252.02,282.33 254.65,277.06 257.29,273.10 261.24,269.15 265.20,265.20 270.47,261.24 274.42,258.61 279.69,255.97 286.28,253.34 291.55,252.02 298.14,250.70 303.41,249.38 310.00,249.38 316.59,249.38 321.86,250.70 328.45,252.02 333.72,253.34 340.31,255.97 345.58,258.61 349.53,261.24 354.80,265.20 358.76,269.15 362.71,273.10 365.35,277.06 367.98,282.33 370.62,286.28 371.93,291.55 373.25,296.82 373.25,302.09 373.25,307.36"/>
<polygon fill="#d9342b" fill-opacity="0.08" stroke="#d9342b" stroke-opacity="0.25" stroke-width="1" points="373.25,301.97 372.95,307.13 372.03,312.25 370.53,317.27 368.43,322.14 365.78,326.81 362.59,331.25 358.89,335.41 354.72,339.24 350.12,342.71 345.14,345.79 339.81,348.45 334.20,350.66 328.36,352.41 322.34,353.66 316.20,354.42 310.00,354.68 303.80,354.42 297.66,353.66 291.64,352.41 285.79,350.66 280.18,348.45 274.86,345.79 269.87,342.71 265.27,339.24 261.10,335.41 257.40,331.25 254.21,326.81 251.56,322.14 249.47,317.27 247.96,312.25 247.05,307.13 246.75,301.97 247.05,296.80 247.96,291.68 249.47,286.67 251.56,281.79 254.21,277.12 257.41,272.68 261.10,268.53 265.27,264.69 269.87,261.22 274.86,258.14 280.18,255.48 285.79,253.27 291.64,251.53 297.66,250.27 303.80,249.51 310.00,249.26 316.20,249.51 322.34,250.27 328.36,251.53 334.20,253.27 339.81,255.48 345.14,258.14 350.12,261.22 354.72,264.69 358.89,268.53 362.59,272.68 365.78,277.12 368.44,281.79 370.53,286.67 372.03,291.68 372.95,296.80 373.25,301.97 373.25,301.97"/>
<polygon fill="#d9342b" fill-opacity="0.08" stroke="#d9342b" stroke-opacity="0.25" stroke-width="1" points="371.93,307.36 370.62,312.64 369.30,316.59 366.66,321.86 364.03,325.81 361.39,331.08 357.44,335.04 353.49,337.67 349.53,341.63 344.26,344.26 338.99,346.90 333.72,349.53 328.45,350.85 321.86,352.17 316.59,353.49 310.00,353.49 303.41,353.49 298.14,352.17 291.55,350.85 286.28,349.53 281.01,346.90 275.74,344.26 270.47,341.63 266.51,337.67 262.56,335.04 258.61,331.08 255.97,325.81 253.34,321.86 250.70,316.59 249.38,312.64 248.07,307.36 248.07,302.09 248.07,296.82 249.38,291.55 250.70,287.60 253.34,282.33 255.97,278.37 258.61,273.10 262.56,269.15 266.51,265.20 270.47,262.56 275.74,258.61 281.01,257.29 286.28,254.65 291.55,253.34 298.14,252.02 303.41,250.70 310.00,250.70 316.59,250.70 321.86,252.02 328.45,253.34 333.72,254.65 338.99,257.29 344.26,258.61 349.53,262.56 353.49,265.20 357.44,269.15 361.39,273.10 364.03,278.37 366.66,282.33 369.30,287.60 370.62,291.55 371.93,296.82 371.93,302.09 371.93,307.36"/>
<polygon fill="#d9342b" fill-opacity="0.08" stroke="#d9342b" stroke-opacity="0.25" stroke-width="1" points="371.93,301.97 371.63,307.00 370.74,311.99 369.27,316.89 367.22,321.63 364.62,326.19 361.49,330.52 357.87,334.57 353.79,338.31 349.29,341.69 344.41,344.70 339.19,347.29 333.70,349.45 327.98,351.15 322.08,352.37 316.07,353.11 310.00,353.36 303.93,353.11 297.91,352.37 292.02,351.15 286.30,349.45 280.80,347.29 275.59,344.70 270.71,341.69 266.20,338.31 262.12,334.57 258.50,330.52 255.38,326.19 252.78,321.63 250.73,316.88 249.25,311.99 248.36,307.00 248.06,301.97 248.36,296.93 249.25,291.94 250.73,287.05 252.78,282.30 255.38,277.74 258.50,273.41 262.12,269.36 266.20,265.63 270.71,262.24 275.59,259.23 280.80,256.64 286.30,254.49 292.02,252.79 297.91,251.56 303.93,250.82 310.00,250.57 316.07,250.82 322.08,251.56 327.98,252.79 333.70,254.49 339.19,256.64 344.41,259.23 349.29,262.24 353.79,265.63 357.87,269.36 361.49,273.41 364.62,277.74 367.22,282.30 369.27,287.05 370.74,291.94 371.63,296.93 371.93,301.97 371.93,301.97"/>
<polygon fill="#d9342b" fill-opacity="0.20" stroke="#d9342b" stroke-width="2.2" points="238.84,238.84 381.16,238.84 381.16,365.35 238.84,365.35 238.84,238.84"/>
</svg>