<svg xmlns="http://www.w3.org/2000/svg" width="620" height="613" viewBox="0 0 620 613">
<rect x="0" y="0" width="100%" height="100%" fill="#ffffff"/>
<polyline fill="none" stroke="#1b9e5a" stroke-opacity="0.22" stroke-width="1" points="227.14,280.63 234.15,287.65"/>
<polyline fill="none" stroke="#1b9e5a" stroke-opacity="0.22" stroke-width="1" points="234.15,287.65 214.11,307.69"/>
<polyline fill="none" stroke="#1b9e5a" stroke-opacity="0.22" stroke-width="1" points="214.11,307.69 207.10,300.68"/>
<polyline fill="none" stroke="#1b9e5a" stroke-opacity="0.22" stroke-width="1" points="207.10,300.68 227.14,280.63"/>
<polyline fill="none" stroke="#1b9e5a" stroke-opacity="0.22" stroke-width="1" points="37.42,90.92 42.43,95.93"/>
<polyline fill="none" stroke="#1b9e5a" stroke-opacity="0.22" stroke-width="1" points="42.43,95.93 22.39,115.97"/>
<polyline fill="none" stroke="#1b9e5a" stroke-opacity="0.22" stroke-width="1" points="17.38,110.96 37.42,90.92"/>
<polyline fill="none" stroke="#d9342b" stroke-opacity="0.22" stroke-width="1" points="255.19,308.69 309.30,254.58"/>
<polyline fill="none" stroke="#d9342b" stroke-opacity="0.22" stroke-width="1" points="309.30,254.58 365.42,310.70"/>
<polyline fill="none" stroke="#d9342b" stroke-opacity="0.22" stroke-width="1" points="365.42,310.70 317.32,358.79"/>
<polyline fill="none" stroke="#2f5bff" stroke-opacity="0.22" stroke-width="1" points="-426.19,978.05 201.09,350.78 187.06,336.75 -428.19,952.00 -580.50,799.69 -597.53,816.72"/>
<polyline fill="none" stroke="#2f5bff" stroke-opacity="0.22" stroke-width="1" points="1698.12,300.68 978.66,1020.13 317.32,358.79 311.31,364.81 235.15,288.65 215.11,308.69 229.14,322.72 243.17,308.69 966.64,1032.16 940.58,1058.21 952.61,1070.23"/>
<polyline fill="none" stroke="#2f5bff" stroke-opacity="0.22" stroke-width="1" points="483.66,962.02 760.22,1238.58 924.55,1074.24 936.58,1086.27 760.22,1262.62 24.73,527.13"/>
<polyline fill="none" stroke="#2f5bff" stroke-opacity="0.22" stroke-width="1" points="215.11,669.42 343.37,541.16 607.91,805.70 479.65,933.96 215.11,669.42"/>
<polyline fill="none" stroke="#2f5bff" stroke-opacity="0.22" stroke-width="1" points="183.05,669.42 343.37,509.10 639.97,805.70 479.65,966.02 183.05,669.42"/>
<polyline fill="none" stroke="#2f5bff" stroke-opacity="0.22" stroke-width="1" points="36.75,515.11 187.06,665.41"/>
<polyline fill="none" stroke="#2f5bff" stroke-opacity="0.22" stroke-width="1" points="365.42,310.70 1036.78,-360.67"/>
<polyline fill="none" stroke="#2f5bff" stroke-opacity="0.22" stroke-width="1" points="353.39,298.67 1024.75,-372.69"/>
<polyline fill="none" stroke="#1b9e5a" stroke-opacity="0.22" stroke-width="1" points="208.60,299.17 23.89,114.46"/>
<polyline fill="none" stroke="#1b9e5a" stroke-opacity="0.22" stroke-width="1" points="227.14,280.63 42.43,95.93"/>
<polyline fill="none" stroke="#1b9e5a" stroke-opacity="0.22" stroke-width="1" points="37.42,90.92 -192.38,-138.88"/>
<polyline fill="none" stroke="#1b9e5a" stroke-opacity="0.22" stroke-width="1" points="210.60,297.17 25.90,112.46"/>
<polyline fill="none" stroke="#d9342b" stroke-opacity="0.22" stroke-width="1" points="317.32,358.79 255.19,308.69"/>
<polygon fill="#d9342b" fill-opacity="0.08" stroke="#d9342b" stroke-opacity="0.25" stroke-width="1" points="365.27,310.00 317.09,358.18 254.73,308.58 310.00,254.73 365.27,310.00"/>
<polygon fill="#1b9e5a" fill-opacity="0.08" stroke="#1b9e5a" stroke-opacity="0.25" stroke-width="1" points="22.33,115.86 18.08,111.61 37.92,90.35 42.17,96.02 22.33,115.86"/>
<polygon fill="#2f5bff" fill-opacity="0.08" stroke="#2f5bff" stroke-opacity="0.25" stroke-width="1" points="183.05,669.42 343.37,509.10 639.97,805.70 479.65,966.02 183.05,669.42"/>
<polygon fill="#2f5bff" fill-opacity="0.08" stroke="#2f5bff" stroke-opacity="0.25" stroke-width="1" points="215.11,669.42 343.37,541.16 607.91,805.70 479.65,933.96 215.11,669.42"/>
<polygon fill="#d9342b" fill-opacity="0.20" stroke="#d9342b" stroke-width="2.2" points="365.27,310.00 317.09,358.18 254.73,308.58 310.00,254.73 365.27,310.00"/>
</svg>