<svg xmlns="http://www.w3.org/2000/svg" width="620" height="647" viewBox="0 0 620 647">
<rect x="0" y="0" width="100%" height="100%" fill="#ffffff"/>
<polyline fill="none" stroke="#1b9e5a" stroke-opacity="0.22" stroke-width="1" points="305.66,340.37 314.34,340.37 314.34,305.66 305.66,305.66 305.66,340.37"/>
<polyline fill="none" stroke="#1b9e5a" stroke-opacity="0.22" stroke-width="1" points="712.32,308.26 517.67,308.26"/>
<polyline fill="none" stroke="#1b9e5a" stroke-opacity="0.22" stroke-width="1" points="305.66,308.26 111.01,308.26"/>
<polyline fill="none" stroke="#1b9e5a" stroke-opacity="0.22" stroke-width="1" points="712.32,311.74 517.67,311.74"/>
<polyline fill="none" stroke="#1b9e5a" stroke-opacity="0.22" stroke-width="1" points="305.66,311.74 111.01,311.74"/>
<polyline fill="none" stroke="#1b9e5a" stroke-opacity="0.22" stroke-width="1" points="1110.30,548.62 253.31,548.62"/>
<polyline fill="none" stroke="#1b9e5a" stroke-opacity="0.22" stroke-width="1" points="314.34,340.37 314.34,429.40"/>
<polyline fill="none" stroke="#1b9e5a" stroke-opacity="0.22" stroke-width="1" points="305.66,340.37 305.66,429.40"/>
<polyline fill="none" stroke="#1b9e5a" stroke-opacity="0.22" stroke-width="1" points="261.99,506.97 261.99,548.62"/>
<polyline fill="none" stroke="#1b9e5a" stroke-opacity="0.22" stroke-width="1" points="253.31,506.97 253.31,604.15"/>
<polyline fill="none" stroke="#1b9e5a" stroke-opacity="0.22" stroke-width="1" points="253.31,604.15 -39.97,604.15"/>
<polyline fill="none" stroke="#1b9e5a" stroke-opacity="0.22" stroke-width="1" points="1110.30,506.97 -83.64,506.97"/>
<polyline fill="none" stroke="#1b9e5a" stroke-opacity="0.22" stroke-width="1" points="1110.30,496.60 -83.64,496.60"/>
<polyline fill="none" stroke="#1b9e5a" stroke-opacity="0.22" stroke-width="1" points="1110.30,457.17 -83.64,457.17"/>
<polyline fill="none" stroke="#1b9e5a" stroke-opacity="0.22" stroke-width="1" points="314.34,506.97 314.34,548.62"/>
<polyline fill="none" stroke="#1b9e5a" stroke-opacity="0.22" stroke-width="1" points="305.66,506.97 305.66,548.62"/>
<polyline fill="none" stroke="#1b9e5a" stroke-opacity="0.22" stroke-width="1" points="1110.30,429.40 -83.64,429.40"/>
<polyline fill="none" stroke="#1b9e5a" stroke-opacity="0.22" stroke-width="1" points="712.32,403.37 517.67,403.37"/>
<polyline fill="none" stroke="#1b9e5a" stroke-opacity="0.22" stroke-width="1" points="305.66,403.37 111.01,403.37"/>
<polyline fill="none" stroke="#1b9e5a" stroke-opacity="0.22" stroke-width="1" points="1110.30,443.28 -83.64,443.28"/>
<polyline fill="none" stroke="#1b9e5a" stroke-opacity="0.22" stroke-width="1" points="314.34,443.28 314.34,457.17"/>
<polyline fill="none" stroke="#1b9e5a" stroke-opacity="0.22" stroke-width="1" points="305.66,443.28 305.66,457.17"/>
<polyline fill="none" stroke="#1b9e5a" stroke-opacity="0.22" stroke-width="1" points="305.66,522.58 261.99,522.58"/>
<polyline fill="none" stroke="#1b9e5a" stroke-opacity="0.22" stroke-width="1" points="712.32,522.58 314.34,522.58"/>
<polyline fill="none" stroke="#1b9e5a" stroke-opacity="0.22" stroke-width="1" points="102.33,340.37 111.01,340.37 111.01,305.66 102.33,305.66 102.33,340.37"/>
<polyline fill="none" stroke="#1b9e5a" stroke-opacity="0.22" stroke-width="1" points="508.99,340.37 517.67,340.37 517.67,305.66 508.99,305.66 508.99,340.37"/>
<polyline fill="none" stroke="#1b9e5a" stroke-opacity="0.22" stroke-width="1" points="102.33,311.74 -92.32,311.74"/>
<polyline fill="none" stroke="#1b9e5a" stroke-opacity="0.22" stroke-width="1" points="102.33,308.26 -92.32,308.26"/>
<polyline fill="none" stroke="#1b9e5a" stroke-opacity="0.22" stroke-width="1" points="508.99,311.74 314.34,311.74"/>
<polyline fill="none" stroke="#1b9e5a" stroke-opacity="0.22" stroke-width="1" points="508.99,308.26 314.34,308.26"/>
<polyline fill="none" stroke="#1b9e5a" stroke-opacity="0.22" stroke-width="1" points="517.67,340.37 517.67,429.40"/>
<polyline fill="none" stroke="#1b9e5a" stroke-opacity="0.22" stroke-width="1" points="508.99,340.37 508.99,429.40"/>
<polyline fill="none" stroke="#1b9e5a" stroke-opacity="0.22" stroke-width="1" points="508.99,403.37 314.34,403.37"/>
<polyline fill="none" stroke="#1b9e5a" stroke-opacity="0.22" stroke-width="1" points="111.01,340.37 111.01,429.40"/>
<polyline fill="none" stroke="#1b9e5a" stroke-opacity="0.22" stroke-width="1" points="102.33,340.37 102.33,429.40"/>
<polyline fill="none" stroke="#1b9e5a" stroke-opacity="0.22" stroke-width="1" points="102.33,403.37 -83.64,403.37"/>
<polygon fill="#1b9e5a" fill-opacity="0.08" stroke="#1b9e5a" stroke-opacity="0.25" stroke-width="1" points="305.66,305.66 314.34,305.66 314.34,340.37 305.66,340.37 305.66,305.66"/>
<polygon fill="#1b9e5a" fill-opacity="0.08" stroke="#1b9e5a" stroke-opacity="0.25" stroke-width="1" points="102.33,305.66 111.01,305.66 111.01,340.37 102.33,340.37 102.33,305.66"/>
<polygon fill="#1b9e5a" fill-opacity="0.08" stroke="#1b9e5a" stroke-opacity="0.25" stroke-width="1" points="508.99,305.66 517.67,305.66 517.67,340.37 508.99,340.37 508.99,305.66"/>
<polygon fill="#1b9e5a" fill-opacity="0.20" stroke="#1b9e5a" stroke-width="2.2" points="305.66,305.66 314.34,305.66 314.34,340.37 305.66,340.37 305.66,305.66"/>
</svg>