<svg xmlns="http://www.w3.org/2000/svg" width="620" height="596" viewBox="0 0 620 596">
<rect x="0" y="0" width="100%" height="100%" fill="#ffffff"/>
<polyline fill="none" stroke="#1b9e5a" stroke-opacity="0.22" stroke-width="1" points="326.59,302.26 326.59,293.96"/>
<polyline fill="none" stroke="#1b9e5a" stroke-opacity="0.22" stroke-width="1" points="326.59,293.96 293.41,293.96"/>
<polyline fill="none" stroke="#1b9e5a" stroke-opacity="0.22" stroke-width="1" points="293.41,293.96 293.41,302.26"/>
<polyline fill="none" stroke="#1b9e5a" stroke-opacity="0.22" stroke-width="1" points="293.41,302.26 326.59,302.26"/>
<polyline fill="none" stroke="#1b9e5a" stroke-opacity="0.22" stroke-width="1" points="295.90,302.26 295.90,656.14"/>
<polyline fill="none" stroke="#1b9e5a" stroke-opacity="0.22" stroke-width="1" points="326.59,302.26 326.59,656.14"/>
<polyline fill="none" stroke="#1b9e5a" stroke-opacity="0.22" stroke-width="1" points="299.22,302.26 299.22,656.14"/>
<polyline fill="none" stroke="#1b9e5a" stroke-opacity="0.22" stroke-width="1" points="299.22,-59.92 299.22,293.96"/>
<polyline fill="none" stroke="#1b9e5a" stroke-opacity="0.22" stroke-width="1" points="295.90,-59.92 295.90,293.96"/>
<polyline fill="none" stroke="#1b9e5a" stroke-opacity="0.22" stroke-width="1" points="326.59,-59.92 326.59,293.96"/>
<polyline fill="none" stroke="#1b9e5a" stroke-opacity="0.22" stroke-width="1" points="326.59,293.96 293.41,293.96 293.41,302.26 326.59,302.26 326.59,293.96"/>
<polygon fill="#1b9e5a" fill-opacity="0.08" stroke="#1b9e5a" stroke-opacity="0.25" stroke-width="1" points="326.59,302.26 293.41,302.26 293.41,293.96 326.59,293.96 326.59,302.26"/>
<polygon fill="#1b9e5a" fill-opacity="0.08" stroke="#1b9e5a" stroke-opacity="0.25" stroke-width="1" points="293.41,301.71 293.41,293.41 326.59,293.41 326.59,301.71 293.41,301.71"/>
<polygon fill="#1b9e5a" fill-opacity="0.20" stroke="#1b9e5a" stroke-width="2.2" points="293.41,301.71 293.41,293.41 326.59,293.41 326.59,301.71 293.41,301.71"/>
</svg>