<svg xmlns="http://www.w3.org/2000/svg" width="620" height="647" viewBox="0 0 620 647">
<rect x="0" y="0" width="100%" height="100%" fill="#ffffff"/>
<polyline fill="none" stroke="#d9342b" stroke-opacity="0.22" stroke-width="1" points="324.75,361.19 352.52,361.19"/>
<polyline fill="none" stroke="#d9342b" stroke-opacity="0.22" stroke-width="1" points="324.75,430.61 352.52,430.61"/>
<polyline fill="none" stroke="#d9342b" stroke-opacity="0.22" stroke-width="1" points="352.52,430.61 352.52,361.19"/>
<polyline fill="none" stroke="#d9342b" stroke-opacity="0.22" stroke-width="1" points="324.75,361.19 296.98,361.19"/>
<polyline fill="none" stroke="#d9342b" stroke-opacity="0.22" stroke-width="1" points="324.75,430.61 296.98,430.61"/>
<polyline fill="none" stroke="#d9342b" stroke-opacity="0.22" stroke-width="1" points="296.98,430.61 296.98,361.19"/>
<polyline fill="none" stroke="#1b9e5a" stroke-opacity="0.22" stroke-width="1" points="352.52,638.86 352.52,430.61"/>
<polyline fill="none" stroke="#1b9e5a" stroke-opacity="0.22" stroke-width="1" points="335.16,319.54 324.75,319.54"/>
<polyline fill="none" stroke="#1b9e5a" stroke-opacity="0.22" stroke-width="1" points="343.84,340.37 335.16,340.37 335.16,305.66 343.84,305.66 343.84,340.37"/>
<polyline fill="none" stroke="#1b9e5a" stroke-opacity="0.22" stroke-width="1" points="335.16,336.90 324.75,336.90"/>
<polyline fill="none" stroke="#1b9e5a" stroke-opacity="0.22" stroke-width="1" points="343.84,340.37 343.84,361.19"/>
<polyline fill="none" stroke="#1b9e5a" stroke-opacity="0.22" stroke-width="1" points="335.16,340.37 335.16,361.19"/>
<polyline fill="none" stroke="#1b9e5a" stroke-opacity="0.22" stroke-width="1" points="343.84,308.26 538.49,308.26"/>
<polyline fill="none" stroke="#1b9e5a" stroke-opacity="0.22" stroke-width="1" points="343.84,311.74 538.49,311.74"/>
<polyline fill="none" stroke="#1b9e5a" stroke-opacity="0.22" stroke-width="1" points="352.52,548.62 1546.46,548.62"/>
<polyline fill="none" stroke="#1b9e5a" stroke-opacity="0.22" stroke-width="1" points="352.52,506.97 1546.46,506.97"/>
<polyline fill="none" stroke="#1b9e5a" stroke-opacity="0.22" stroke-width="1" points="352.52,496.60 1546.46,496.60"/>
<polyline fill="none" stroke="#1b9e5a" stroke-opacity="0.22" stroke-width="1" points="352.52,457.17 1546.46,457.17"/>
<polyline fill="none" stroke="#1b9e5a" stroke-opacity="0.22" stroke-width="1" points="352.52,429.40 1546.46,429.40"/>
<polyline fill="none" stroke="#1b9e5a" stroke-opacity="0.22" stroke-width="1" points="352.52,403.37 538.49,403.37"/>
<polyline fill="none" stroke="#1b9e5a" stroke-opacity="0.22" stroke-width="1" points="352.52,443.28 1546.46,443.28"/>
<polyline fill="none" stroke="#1b9e5a" stroke-opacity="0.22" stroke-width="1" points="352.52,522.58 741.82,522.58"/>
<polyline fill="none" stroke="#1b9e5a" stroke-opacity="0.22" stroke-width="1" points="547.17,340.37 538.49,340.37 538.49,305.66 547.17,305.66 547.17,340.37"/>
<polyline fill="none" stroke="#1b9e5a" stroke-opacity="0.22" stroke-width="1" points="547.17,311.74 741.82,311.74"/>
<polyline fill="none" stroke="#1b9e5a" stroke-opacity="0.22" stroke-width="1" points="547.17,308.26 741.82,308.26"/>
<polyline fill="none" stroke="#1b9e5a" stroke-opacity="0.22" stroke-width="1" points="538.49,340.37 538.49,429.40"/>
<polyline fill="none" stroke="#1b9e5a" stroke-opacity="0.22" stroke-width="1" points="547.17,340.37 547.17,429.40"/>
<polyline fill="none" stroke="#1b9e5a" stroke-opacity="0.22" stroke-width="1" points="547.17,403.37 741.82,403.37"/>
<polyline fill="none" stroke="#1b9e5a" stroke-opacity="0.22" stroke-width="1" points="296.98,638.86 296.98,430.61"/>
<polyline fill="none" stroke="#1b9e5a" stroke-opacity="0.22" stroke-width="1" points="305.66,340.37 314.34,340.37 314.34,305.66 305.66,305.66 305.66,340.37"/>
<polyline fill="none" stroke="#1b9e5a" stroke-opacity="0.22" stroke-width="1" points="324.75,319.54 314.34,319.54"/>
<polyline fill="none" stroke="#1b9e5a" stroke-opacity="0.22" stroke-width="1" points="324.75,336.90 314.34,336.90"/>
<polyline fill="none" stroke="#1b9e5a" stroke-opacity="0.22" stroke-width="1" points="305.66,340.37 305.66,361.19"/>
<polyline fill="none" stroke="#1b9e5a" stroke-opacity="0.22" stroke-width="1" points="314.34,340.37 314.34,361.19"/>
<polyline fill="none" stroke="#1b9e5a" stroke-opacity="0.22" stroke-width="1" points="-92.32,308.26 102.33,308.26"/>
<polyline fill="none" stroke="#1b9e5a" stroke-opacity="0.22" stroke-width="1" points="-92.32,311.74 102.33,311.74"/>
<polyline fill="none" stroke="#1b9e5a" stroke-opacity="0.22" stroke-width="1" points="-896.96,548.62 296.98,548.62"/>
<polyline fill="none" stroke="#1b9e5a" stroke-opacity="0.22" stroke-width="1" points="-896.96,506.97 296.98,506.97"/>
<polyline fill="none" stroke="#1b9e5a" stroke-opacity="0.22" stroke-width="1" points="-896.96,496.60 296.98,496.60"/>
<polyline fill="none" stroke="#1b9e5a" stroke-opacity="0.22" stroke-width="1" points="-896.96,457.17 296.98,457.17"/>
<polyline fill="none" stroke="#1b9e5a" stroke-opacity="0.22" stroke-width="1" points="-896.96,429.40 296.98,429.40"/>
<polyline fill="none" stroke="#1b9e5a" stroke-opacity="0.22" stroke-width="1" points="-92.32,403.37 102.33,403.37"/>
<polyline fill="none" stroke="#1b9e5a" stroke-opacity="0.22" stroke-width="1" points="-896.96,443.28 296.98,443.28"/>
<polyline fill="none" stroke="#1b9e5a" stroke-opacity="0.22" stroke-width="1" points="-92.32,522.58 296.98,522.58"/>
<polyline fill="none" stroke="#1b9e5a" stroke-opacity="0.22" stroke-width="1" points="111.01,340.37 102.33,340.37 102.33,305.66 111.01,305.66 111.01,340.37"/>
<polyline fill="none" stroke="#1b9e5a" stroke-opacity="0.22" stroke-width="1" points="111.01,311.74 305.66,311.74"/>
<polyline fill="none" stroke="#1b9e5a" stroke-opacity="0.22" stroke-width="1" points="111.01,308.26 305.66,308.26"/>
<polyline fill="none" stroke="#1b9e5a" stroke-opacity="0.22" stroke-width="1" points="102.33,340.37 102.33,429.40"/>
<polyline fill="none" stroke="#1b9e5a" stroke-opacity="0.22" stroke-width="1" points="111.01,340.37 111.01,429.40"/>
<polyline fill="none" stroke="#1b9e5a" stroke-opacity="0.22" stroke-width="1" points="111.01,403.37 296.98,403.37"/>
<polygon fill="#d9342b" fill-opacity="0.08" stroke="#d9342b" stroke-opacity="0.25" stroke-width="1" points="352.52,430.61 324.75,430.61 296.98,430.61 296.98,361.19 324.75,361.19 352.52,361.19 352.52,430.61"/>
<polygon fill="#1b9e5a" fill-opacity="0.08" stroke="#1b9e5a" stroke-opacity="0.25" stroke-width="1" points="111.01,340.37 102.33,340.37 102.33,305.66 111.01,305.66 111.01,340.37"/>
<polygon fill="#1b9e5a" fill-opacity="0.08" stroke="#1b9e5a" stroke-opacity="0.25" stroke-width="1" points="305.66,305.66 314.34,305.66 314.34,340.37 305.66,340.37 305.66,305.66"/>
<polygon fill="#1b9e5a" fill-opacity="0.08" stroke="#1b9e5a" stroke-opacity="0.25" stroke-width="1" points="343.84,340.37 335.16,340.37 335.16,305.66 343.84,305.66 343.84,340.37"/>
<polygon fill="#1b9e5a" fill-opacity="0.08" stroke="#1b9e5a" stroke-opacity="0.25" stroke-width="1" points="547.17,340.37 538.49,340.37 538.49,305.66 547.17,305.66 547.17,340.37"/>
<polygon fill="#1b9e5a" fill-opacity="0.20" stroke="#1b9e5a" stroke-width="2.2" points="305.66,305.66 314.34,305.66 314.34,340.37 305.66,340.37 305.66,305.66"/>
</svg>