<svg xmlns="http://www.w3.org/2000/svg" width="620" height="620" viewBox="0 0 620 620">
<rect x="0" y="0" width="100%" height="100%" fill="#ffffff"/>
<polyline fill="none" stroke="#1b9e5a" stroke-opacity="0.22" stroke-width="1" points="276.60,353.06 352.72,277.12"/>
<polyline fill="none" stroke="#1b9e5a" stroke-opacity="0.22" stroke-width="1" points="109.99,519.52 188.95,440.73"/>
<polyline fill="none" stroke="#1b9e5a" stroke-opacity="0.22" stroke-width="1" points="194.74,434.94 270.82,358.86"/>
<polyline fill="none" stroke="#1b9e5a" stroke-opacity="0.22" stroke-width="1" points="573.59,56.86 652.55,-21.94"/>
<polyline fill="none" stroke="#d9342b" stroke-opacity="0.22" stroke-width="1" points="565.14,68.84 538.12,95.85 565.13,122.88 592.15,95.87 565.14,68.84"/>
<polyline fill="none" stroke="#d9342b" stroke-opacity="0.22" stroke-width="1" points="101.95,531.92 74.93,558.92 101.93,585.95 128.96,558.94 101.95,531.92"/>
<polyline fill="none" stroke="#1b9e5a" stroke-opacity="0.22" stroke-width="1" points="107.38,477.88 246.32,338.95"/>
<polyline fill="none" stroke="#1b9e5a" stroke-opacity="0.22" stroke-width="1" points="338.95,246.32 477.89,107.38"/>
<polyline fill="none" stroke="#1b9e5a" stroke-opacity="0.22" stroke-width="1" points="142.11,512.61 281.05,373.68"/>
<polyline fill="none" stroke="#1b9e5a" stroke-opacity="0.22" stroke-width="1" points="373.68,281.05 512.62,142.11"/>
<polyline fill="none" stroke="#1b9e5a" stroke-opacity="0.22" stroke-width="1" points="373.19,272.37 504.78,140.79"/>
<polyline fill="none" stroke="#1b9e5a" stroke-opacity="0.22" stroke-width="1" points="378.02,276.71 508.27,146.46"/>
<polyline fill="none" stroke="#1b9e5a" stroke-opacity="0.22" stroke-width="1" points="369.33,268.03 499.59,137.77"/>
<polyline fill="none" stroke="#1b9e5a" stroke-opacity="0.22" stroke-width="1" points="373.67,272.85 505.26,141.27"/>
<polyline fill="none" stroke="#1b9e5a" stroke-opacity="0.22" stroke-width="1" points="506.59,141.39 504.66,139.46"/>
<polyline fill="none" stroke="#1b9e5a" stroke-opacity="0.22" stroke-width="1" points="504.90,143.08 506.59,141.39"/>
<polyline fill="none" stroke="#1b9e5a" stroke-opacity="0.22" stroke-width="1" points="502.97,141.15 504.66,139.46"/>
<polyline fill="none" stroke="#1b9e5a" stroke-opacity="0.22" stroke-width="1" points="502.97,140.66 504.66,138.97"/>
<polyline fill="none" stroke="#1b9e5a" stroke-opacity="0.22" stroke-width="1" points="505.38,143.08 507.07,141.39"/>
<polyline fill="none" stroke="#1b9e5a" stroke-opacity="0.22" stroke-width="1" points="507.07,141.39 504.66,138.97"/>
<polyline fill="none" stroke="#1b9e5a" stroke-opacity="0.22" stroke-width="1" points="505.38,143.08 508.27,145.97 511.17,143.08 502.97,134.87 500.07,137.77 502.97,140.66"/>
<polyline fill="none" stroke="#1b9e5a" stroke-opacity="0.22" stroke-width="1" points="504.90,143.08 508.27,146.45 511.65,143.08 502.97,134.39 499.59,137.77 502.97,141.15"/>
<polyline fill="none" stroke="#1b9e5a" stroke-opacity="0.22" stroke-width="1" points="504.90,143.08 503.50,143.08"/>
<polyline fill="none" stroke="#1b9e5a" stroke-opacity="0.22" stroke-width="1" points="502.97,141.15 502.97,142.59"/>
<polyline fill="none" stroke="#1b9e5a" stroke-opacity="0.22" stroke-width="1" points="505.26,141.27 504.78,140.78"/>
<polyline fill="none" stroke="#1b9e5a" stroke-opacity="0.22" stroke-width="1" points="373.68,272.85 373.19,272.37"/>
<polyline fill="none" stroke="#1b9e5a" stroke-opacity="0.22" stroke-width="1" points="373.68,279.12 372.71,280.08 365.96,273.33 366.92,272.37 373.68,279.12"/>
<polyline fill="none" stroke="#1b9e5a" stroke-opacity="0.22" stroke-width="1" points="373.68,279.12 365.96,273.33"/>
<polyline fill="none" stroke="#1b9e5a" stroke-opacity="0.22" stroke-width="1" points="510.69,142.11 511.65,141.15 504.90,134.39 503.93,135.36 510.69,142.11"/>
<polyline fill="none" stroke="#1b9e5a" stroke-opacity="0.22" stroke-width="1" points="511.65,141.15 503.93,135.36"/>
<polyline fill="none" stroke="#1b9e5a" stroke-opacity="0.22" stroke-width="1" points="141.63,503.94 273.21,372.36"/>
<polyline fill="none" stroke="#1b9e5a" stroke-opacity="0.22" stroke-width="1" points="146.45,508.28 276.71,378.02"/>
<polyline fill="none" stroke="#1b9e5a" stroke-opacity="0.22" stroke-width="1" points="137.77,499.60 268.02,369.34"/>
<polyline fill="none" stroke="#1b9e5a" stroke-opacity="0.22" stroke-width="1" points="142.11,504.42 273.69,372.84"/>
<polyline fill="none" stroke="#1b9e5a" stroke-opacity="0.22" stroke-width="1" points="275.02,372.95 273.09,371.02"/>
<polyline fill="none" stroke="#1b9e5a" stroke-opacity="0.22" stroke-width="1" points="273.33,374.64 275.02,372.95"/>
<polyline fill="none" stroke="#1b9e5a" stroke-opacity="0.22" stroke-width="1" points="271.40,372.71 273.09,371.02"/>
<polyline fill="none" stroke="#1b9e5a" stroke-opacity="0.22" stroke-width="1" points="271.40,372.23 273.09,370.54"/>
<polyline fill="none" stroke="#1b9e5a" stroke-opacity="0.22" stroke-width="1" points="273.81,374.64 275.50,372.95"/>
<polyline fill="none" stroke="#1b9e5a" stroke-opacity="0.22" stroke-width="1" points="275.50,372.95 273.09,370.54"/>
<polyline fill="none" stroke="#1b9e5a" stroke-opacity="0.22" stroke-width="1" points="273.81,374.64 276.71,377.54 279.60,374.64 271.40,366.44 268.51,369.34 271.40,372.23"/>
<polyline fill="none" stroke="#1b9e5a" stroke-opacity="0.22" stroke-width="1" points="273.33,374.64 276.71,378.02 280.09,374.64 271.40,365.96 268.03,369.34 271.40,372.71"/>
<polyline fill="none" stroke="#1b9e5a" stroke-opacity="0.22" stroke-width="1" points="273.33,374.64 271.93,374.64"/>
<polyline fill="none" stroke="#1b9e5a" stroke-opacity="0.22" stroke-width="1" points="271.40,372.71 271.40,374.16"/>
<polyline fill="none" stroke="#1b9e5a" stroke-opacity="0.22" stroke-width="1" points="273.69,372.83 273.21,372.35"/>
<polyline fill="none" stroke="#1b9e5a" stroke-opacity="0.22" stroke-width="1" points="142.11,504.42 141.63,503.93"/>
<polyline fill="none" stroke="#1b9e5a" stroke-opacity="0.22" stroke-width="1" points="142.11,510.69 141.15,511.65 134.39,504.90 135.36,503.93 142.11,510.69"/>
<polyline fill="none" stroke="#1b9e5a" stroke-opacity="0.22" stroke-width="1" points="142.11,510.69 134.39,504.90"/>
<polyline fill="none" stroke="#1b9e5a" stroke-opacity="0.22" stroke-width="1" points="279.12,373.68 280.09,372.71 273.33,365.96 272.37,366.92 279.12,373.68"/>
<polyline fill="none" stroke="#1b9e5a" stroke-opacity="0.22" stroke-width="1" points="280.09,372.71 272.37,366.92"/>
<polyline fill="none" stroke="#2f5bff" stroke-opacity="0.22" stroke-width="1" points="490.15,914.08 683.91,720.41 555.35,591.78"/>
<polyline fill="none" stroke="#2f5bff" stroke-opacity="0.22" stroke-width="1" points="1167.19,-19.75 566.93,580.21 822.82,836.23 1154.73,504.48"/>
<polyline fill="none" stroke="#2f5bff" stroke-opacity="0.22" stroke-width="1" points="331.45,796.28 795.63,332.33 579.56,116.14 589.21,106.50 805.28,322.68 1167.19,-39.05 1283.91,77.73 1286.93,74.71 1283.91,77.73"/>
<polyline fill="none" stroke="#2f5bff" stroke-opacity="0.22" stroke-width="1" points="490.15,914.08 361.58,785.45 555.35,591.78"/>
<polyline fill="none" stroke="#2f5bff" stroke-opacity="0.22" stroke-width="1" points="331.45,796.28 116.34,581.06 106.69,590.70 321.80,805.92 110.44,1017.17 -127.82,778.79 -137.47,788.44 100.79,1026.82 -139.37,1266.85 -129.72,1276.50 328.71,818.31 880.47,1370.34 599.44,1651.24 528.18,1579.95"/>
<polyline fill="none" stroke="#2f5bff" stroke-opacity="0.22" stroke-width="1" points="547.36,37.92 570.52,14.76 605.24,49.49 582.08,72.64"/>
<polyline fill="none" stroke="#2f5bff" stroke-opacity="0.22" stroke-width="1" points="84.22,501.04 107.38,477.88 142.11,512.62 118.95,535.78"/>
<polyline fill="none" stroke="#2f5bff" stroke-opacity="0.22" stroke-width="1" points="246.32,338.95 281.05,373.68 373.68,281.05 338.95,246.32 246.32,338.95"/>
<polyline fill="none" stroke="#2f5bff" stroke-opacity="0.22" stroke-width="1" points="501.04,84.23 477.89,107.38 512.62,142.11 535.78,118.96"/>
<polyline fill="none" stroke="#2f5bff" stroke-opacity="0.22" stroke-width="1" points="37.91,547.35 14.75,570.51 49.49,605.24 72.64,582.09"/>
<polyline fill="none" stroke="#2f5bff" stroke-opacity="0.22" stroke-width="1" points="61.59,586.18 86.39,610.99 153.95,543.47 129.20,518.71"/>
<polyline fill="none" stroke="#2f5bff" stroke-opacity="0.22" stroke-width="1" points="570.75,144.28 565.93,149.11 501.05,84.23 547.36,37.91 612.24,102.80 607.42,107.62"/>
<polyline fill="none" stroke="#2f5bff" stroke-opacity="0.22" stroke-width="1" points="107.62,607.41 102.79,612.24 37.91,547.36 84.22,501.04 149.11,565.93 144.28,570.75"/>
<polygon fill="#d9342b" fill-opacity="0.08" stroke="#d9342b" stroke-opacity="0.25" stroke-width="1" points="128.96,558.94 101.93,585.95 74.93,558.92 101.95,531.92 128.96,558.94"/>
<polygon fill="#d9342b" fill-opacity="0.08" stroke="#d9342b" stroke-opacity="0.25" stroke-width="1" points="592.15,95.87 565.13,122.88 538.12,95.85 565.14,68.84 592.15,95.87"/>
<polygon fill="#2f5bff" fill-opacity="0.08" stroke="#2f5bff" stroke-opacity="0.25" stroke-width="1" points="362.19,784.91 555.95,591.15 684.22,720.78 490.46,914.54 362.19,784.91"/>
<polygon fill="#2f5bff" fill-opacity="0.08" stroke="#2f5bff" stroke-opacity="0.25" stroke-width="1" points="338.95,246.32 373.68,281.05 281.05,373.68 246.32,338.95 338.95,246.32"/>
<polygon fill="#2f5bff" fill-opacity="0.20" stroke="#2f5bff" stroke-width="2.2" points="338.95,246.32 373.68,281.05 281.05,373.68 246.32,338.95 338.95,246.32"/>
</svg>