<svg xmlns="http://www.w3.org/2000/svg" width="620" height="620" viewBox="0 0 620 620">
<rect x="0" y="0" width="100%" height="100%" fill="#ffffff"/>
<polyline fill="none" stroke="#1b9e5a" stroke-opacity="0.22" stroke-width="1" points="846.41,351.54 505.96,691.99"/>
<polyline fill="none" stroke="#2f5bff" stroke-opacity="0.22" stroke-width="1" points="662.92,113.86 411.14,-137.91 384.05,-110.82 483.39,-11.49 503.25,-31.35 655.70,121.09 662.92,113.86"/>
<polyline fill="none" stroke="#2f5bff" stroke-opacity="0.22" stroke-width="1" points="203.44,69.79 -345.62,618.84 -249.01,715.45 -241.79,708.22 -331.17,618.84 80.62,207.05 89.67,216.09 96.89,208.87 87.85,199.83 199.83,87.85 337.09,225.11 225.11,337.09 161.91,273.89 154.69,281.11 187.18,313.61 117.60,383.19 124.83,390.42 190.80,324.45 259.43,393.08 133.00,519.51 64.37,450.88 70.65,444.60 63.42,437.38 49.92,450.88 96.88,497.83 82.43,512.28 89.66,519.51 36.38,572.79 29.15,565.56 9.28,585.43 16.51,592.66 -36.77,645.94 -44.00,638.71 -58.45,653.16 -127.08,584.53 -134.30,591.75 -56.64,669.41 -168.62,781.39 -176.77,773.24 -183.99,780.47 -160.02,804.44 -152.80,797.21 -161.39,788.62 -49.41,676.64 28.25,754.30 35.47,747.08 -33.16,678.45 -18.71,664.00 -25.94,656.77 28.25,602.59 35.47,609.81 53.53,591.75 46.31,584.53 100.49,530.34 107.72,537.57 122.17,523.12 190.80,591.75 198.02,584.53 154.67,541.18 284.71,411.14 336.90,463.33 344.13,456.11 282.91,394.89 394.89,282.91 532.15,420.17 420.17,532.15 409.15,521.13 401.92,528.35 412.95,539.38 1.16,951.17 -87.78,862.23 -95.00,869.46 1.16,965.62 757.91,208.86 727.94,178.88 720.72,186.11 739.85,205.25 539.38,405.72 203.44,69.79"/>
<polyline fill="none" stroke="#2f5bff" stroke-opacity="0.22" stroke-width="1" points="147.45,533.96 140.23,526.73 270.27,396.69 277.49,403.92 147.45,533.96"/>
<polyline fill="none" stroke="#2f5bff" stroke-opacity="0.22" stroke-width="1" points="387.66,275.68 275.68,387.66 232.34,344.32 344.32,232.34 387.66,275.68"/>
<polyline fill="none" stroke="#2f5bff" stroke-opacity="0.22" stroke-width="1" points="1339.93,-1052.25 1341.74,-1050.45 1347.38,-1056.09 1336.55,-1066.93 519.51,-249.89 980.07,210.66"/>
<polyline fill="none" stroke="#2f5bff" stroke-opacity="0.22" stroke-width="1" points="1856.64,-846.64 1849.42,-853.87 1368.49,-372.94 1014.55,-726.88 1271.30,-983.62 1359.80,-895.12 1583.98,-1119.31 1576.76,-1126.53 1359.80,-909.57 1278.52,-990.85 1343.77,-1056.09 1336.55,-1063.32 523.12,-249.89 981.87,208.86 959.20,231.52 966.43,238.75 989.10,216.08 1234.73,461.71 1241.95,454.49 898.73,111.27 1168.01,-158.01 1248.06,-77.97 1255.28,-85.19 1157.89,-182.58 1150.67,-175.36 1160.79,-165.24 891.51,104.05 537.57,-249.89 806.85,-519.17 1085.65,-240.38 1092.87,-247.60 1001.91,-338.56 1037.86,-374.51 994.51,-417.86 958.56,-381.91 814.08,-526.40 1007.33,-719.65 1361.27,-365.71 1243.87,-248.32 1251.09,-241.09 1437.08,-427.08 1588.79,-275.37 1596.02,-282.59 1444.31,-434.30 1856.64,-846.64"/>
<polyline fill="none" stroke="#d9342b" stroke-opacity="0.22" stroke-width="1" points="331.34,265.90 319.83,277.42 318.54,276.14 331.66,263.02 344.77,249.91 346.05,251.19 334.54,262.71 334.54,265.11 354.89,285.46 357.29,285.46 368.81,273.95 370.09,275.23 343.86,301.46 342.58,300.17 354.10,288.66 354.10,286.26 333.74,265.90 331.34,265.90"/>
<polygon fill="#d9342b" fill-opacity="0.08" stroke="#d9342b" stroke-opacity="0.25" stroke-width="1" points="331.34,265.90 319.83,277.42 318.54,276.14 331.66,263.02 344.77,249.91 346.05,251.19 334.54,262.71 334.54,265.11 354.89,285.46 357.29,285.46 368.81,273.95 370.09,275.23 343.86,301.46 342.58,300.17 354.10,288.66 354.10,286.26 333.74,265.90 331.34,265.90"/>
<polygon fill="#2f5bff" fill-opacity="0.08" stroke="#2f5bff" stroke-opacity="0.25" stroke-width="1" points="539.27,406.10 739.77,205.59 720.62,186.44 728.28,178.78 757.65,209.43 1.61,965.47 -95.46,869.69 -87.79,862.03 1.61,951.43 412.83,538.92 401.34,528.70 409.00,521.04 420.50,532.53 531.61,420.15 394.95,283.50 282.57,394.61 343.87,455.91 337.48,463.57 285.12,411.21 154.86,541.47 198.28,584.90 190.62,591.28 121.65,523.59 107.61,537.64 99.94,529.98 46.30,584.90 53.97,591.28 36.09,610.44 28.42,602.78 -26.49,656.41 -18.83,664.08 -32.88,678.12 36.09,747.09 28.42,754.75 -49.48,676.85 -161.86,789.23 -152.93,796.90 -160.59,804.56 -183.58,780.29 -177.19,772.63 -168.25,781.57 -57.14,669.19 -133.77,591.28 -127.38,584.90 -58.42,652.58 -44.37,638.53 -36.71,646.20 16.93,592.56 9.27,584.90 29.70,565.74 36.09,573.40 89.73,519.76 82.06,512.10 97.39,498.05 50.14,450.80 62.91,436.75 70.57,444.41 64.18,450.80 133.15,519.76 259.58,393.33 190.62,324.37 124.21,390.78 117.82,383.11 186.79,314.15 154.86,280.94 162.52,273.28 225.10,337.14 337.48,224.75 199.56,88.10 88.45,199.21 97.39,209.43 89.73,215.81 80.79,206.87 -331.72,619.38 -242.32,708.78 -248.71,715.16 -345.77,619.38 203.39,70.22 539.27,406.10"/>
<polygon fill="#2f5bff" fill-opacity="0.08" stroke="#2f5bff" stroke-opacity="0.25" stroke-width="1" points="1444.31,-434.30 1596.02,-282.59 1588.79,-275.37 1437.08,-427.08 1251.09,-241.09 1243.87,-248.32 1361.27,-365.71 1007.33,-719.65 814.08,-526.40 958.56,-381.91 994.51,-417.86 1037.86,-374.51 1001.91,-338.56 1092.87,-247.60 1085.65,-240.38 806.85,-519.17 537.57,-249.89 891.51,104.05 1160.79,-165.24 1150.67,-175.36 1157.89,-182.58 1255.28,-85.19 1248.06,-77.97 1168.01,-158.01 898.73,111.27 1241.95,454.49 1234.73,461.71 989.10,216.08 966.43,238.75 959.20,231.52 981.87,208.86 523.12,-249.89 1336.55,-1063.32 1343.77,-1056.09 1278.52,-990.85 1359.80,-909.57 1576.76,-1126.53 1583.98,-1119.31 1359.80,-895.12 1271.30,-983.62 1014.55,-726.88 1368.49,-372.94 1849.42,-853.87 1856.64,-846.64 1444.31,-434.30"/>
<polygon fill="#2f5bff" fill-opacity="0.08" stroke="#2f5bff" stroke-opacity="0.25" stroke-width="1" points="387.66,275.68 275.68,387.66 232.34,344.32 344.32,232.34 387.66,275.68"/>
<polygon fill="#2f5bff" fill-opacity="0.08" stroke="#2f5bff" stroke-opacity="0.25" stroke-width="1" points="655.70,121.09 503.25,-31.35 483.39,-11.49 384.05,-110.82 411.14,-137.91 662.92,113.86 655.70,121.09"/>
<polygon fill="#2f5bff" fill-opacity="0.20" stroke="#2f5bff" stroke-width="2.2" points="387.66,275.68 275.68,387.66 232.34,344.32 344.32,232.34 387.66,275.68"/>
</svg>